<?xml version="1.0" encoding="UTF-8"?>
<svg id="Layer_1" data-name="Layer 1" xmlns="http://www.w3.org/2000/svg" viewBox="0 0 238.49 254.47">
  <defs>
    <style>
      .cls-1 {
        fill: none;
      }

      .cls-2 {
        fill: #fff;
      }
    </style>
  </defs>
  <path class="cls-1" d="M127.66,205.43c-.06-1.82,0-3.95-.5-5.8-.37-1.22-1.31-2.24-2.03-3.38-3.56-5.41-3.45-12.86,1.3-17.73,1.21-1.31.93-3.54.92-5.12-.03-.38-.06-.83-.49-.87-3.31.09-16.23-.28-20.86.13-.44.93-.45,3.28-.29,4.43.18.98.95,1.63,1.64,2.33,4.17,4.14,4.27,11.44.81,16.23-1.17,1.86-2.58,3.04-2.39,5.46-.06,3.14-.23,9.81-.25,11.94-.02.95.87,1.28,1.68,1.63,3.93,1.54,7.24,4.35,9,8.2.75,1.13,1.47-.25,1.9-.96,1.65-3.11,4.38-5.46,7.41-7.08.78-.44,1.53-.99,1.75-1.88.2-2.39.22-5.07.4-7.35v-.19Z"/>
  <path class="cls-2" d="M68.02,105.16c-10.11.61-8.39,17.34,1.85,15.34,8.1-1.61,7.2-16-1.63-15.35h-.21ZM64.88,112.98c.12-1.4,1.39-3.53,3.09-3.74,1.64-.35,3.53.17,4.14,1.84.76,1.85-.02,4.85-2.18,5.51-2.34.95-5.19-.85-5.05-3.44v-.17Z"/>
  <path class="cls-2" d="M51.37,110.97c-.34.34-.28,1.23.07,1.48.2.18.31.1.74.12.88,0,3.12,0,3.63,0,.13,0,.14-.03.13-.28-.01-.37-.01-1.14-.03-1.36-.02-.23-.24-.22-.64-.27-.92-.06-2.95-.03-3.83.25l-.07.06Z"/>
  <path class="cls-2" d="M39.92,110.85c-.33.13-.38.59-.41.93-.05.32.16.14.62.22l1.76.09,3.09.16c.15,0,.19.04.19-.12,0-.25,0-1.29,0-1.54,0-.22-.14-.1-.52-.1-.95.07-3.65.23-4.68.32l-.06.03Z"/>
  <path d="M67.47,109.36c-4.68,2.2-2.44,9.2,2.81,7.09,2.03-.89,2.63-3.92,1.68-5.71-.76-1.55-2.82-1.83-4.33-1.43l-.17.05Z"/>
  <path class="cls-2" d="M21.87,96.43c-.43,9.16-.51,18.76-.35,28,.05,1.11.21,2.17.29,3.29.08,2.32-.12,4.87,2.23,6.07,2,1.18,4.98-.04,5-2.34,0-3.15,0-25.9,0-33.47,0-.33,0-.63,0-.94-.08-1.04.36-1.32-1.07-1.39-1.59-.07-3.47-.05-5.02.13-.51.08-.84.23-1.02.54l-.05.11ZM28.11,128.38c.21.92.03,1.67-1.04,1.38-.81-.22-1.59-.19-2.41.01-.75.14-1.42.22-1.55-.36-.11-.6.23-1.49.5-1.9,1.01-1.54,4.06-1.21,4.47.72l.04.15Z"/>
  <path class="cls-2" d="M17.88,47.72c-1.21-2.84-4.07-1.64-3.76,1.22.12,4.09-.37,8.5-.15,12.55.05.83.17,1.75.58,2.49.97,1.93,3.48,1.15,3.68-.86-.4-5.03.02-10.2-.29-15.22l-.05-.17Z"/>
  <path class="cls-2" d="M23.65,64.37c1.53,1.8,3.44-.11,3.23-1.99-.18-4.38.51-9.35.14-13.6.02-1.79-1.71-4.08-3.33-2.16-1.75,3.6-.14,8.51-.37,12.35,0,1.71-.78,3.72.22,5.26l.11.15Z"/>
  <path class="cls-2" d="M34,65c3.79.26,1.54-12.26,2-15.01.3-1.59.36-3.83-1.68-4.11-1.02-.02-1.8.74-1.95,1.64-.38,2.29-.1,8.69-.1,11.25.03,2.09-1.23,5.42,1.55,6.21l.18.02Z"/>
  <path d="M24.7,126.69c-.9.22-1.42,1.24-1.57,2.11-.18.83.23,1.22,1.14,1.04.73-.11,1.53-.35,2.22-.2.68.15,1.77.46,1.7-.61,0-1.89-1.59-2.8-3.35-2.38l-.14.04Z"/>
  <path class="cls-2" d="M221.11,62.92c.14-11.89-12.79-20.28-23.57-15.39-16.47,7.29-11.66,31.8,6.29,32.36,9.3.34,17.33-7.47,17.29-16.77v-.2ZM204.08,76.15c-7.23.03-13.3-6.35-12.85-13.59.72-13.62,19.35-17.04,24.86-4.51,3.76,8.21-2.75,18.24-11.81,18.1h-.19Z"/>
  <path class="cls-2" d="M208.19,101.45c-.7-2.4-3.67-2.83-5.96-1.98-.75.3-1.23.89-1.38,1.7-.88,8.82.25,17.74-.35,26.54-.24,3.85,3.8,7.16,6.8,3.68.52-.65.77-1.37.85-2.13.25-2.74-.15-6.84-.11-9.6.05-5.82,1.29-12.73.2-18.05l-.05-.16Z"/>
  <path class="cls-2" d="M163.86,105.35c-9.43.32-9.75,14.08-.31,14.79,10.03.2,10.45-14.33.5-14.79h-.19ZM166.12,115.81c-3.35,3.55-7.77-2.49-5.27-5.62,4.09-3.6,9.24,1.2,5.41,5.48l-.14.14Z"/>
  <path class="cls-2" d="M206.4,89.24c-.91.2-2.22.42-3.2.25-.41-.03-.75-.23-1.08-.18-.09.13-.11,3.59,0,4.07,1.19-.2,2.58-.37,3.85-.02.16.03.36.08.52.02.13-.22.03-1.63.06-2.19-.04-.53.09-1.68-.06-1.95h-.08Z"/>
  <path class="cls-2" d="M189.94,109.88c-.96-.03-3.01,0-4.08-.01-.18,0-.24-.02-.25.11,0,.36,0,.67,0,1.07.05.29-.11.92.13.92.62.04,4.27.29,4.59.3.1-.19.03-.34.04-.68-.03-.67.1-1.24-.39-1.66l-.05-.04Z"/>
  <path class="cls-2" d="M177.02,111.53c.34.74,1.28.82,2.02.76.27-.03.61.02.62-.09.04-.31.3-2,.27-2.01,0-.03-1.96.31-2.53.39-.19.02-.16.01-.26.34l-.15.52.02.09Z"/>
  <path d="M204.08,50.21c-7.23-.03-13.3,6.35-12.85,13.59.72,13.62,19.35,17.04,24.86,4.51,3.76-8.21-2.75-18.24-11.81-18.1h-.19Z"/>
  <path d="M163.03,109.05c-4.83.54-2.97,8.41,1.3,7.79,4.73-1.5,4.15-8.6-1.09-7.82l-.21.03Z"/>
  <path d="M214.46,87.45c25.07-9.17,24.4-42.18-.67-51.03-3.26-4.2,1.02-9.11-7.93-8.52-3.65,0-9.48-.73-10.33,3.97-.36,1.52.04,3.47-1.26,4.61-24.17,9.14-25.46,41.22-.81,50.64,4.03.99,3.36,6.21,3.19,9.26-1.71,2.82-3.33,5.82-5.07,8.6-4.2,2.11-9.59.59-14.2.97-1.77.06-3.19-.9-4.32-2.19-4.47-4.78-12.83-4.93-17.68-.45-.7.62-1.75,1.91-2.58,1.69-6.96-7.93-11.43-7.88-21.33-7.73-1.61-.06-1.31-3.66-.6-4.17,9.51-.45,17.09.29,22.46-9.53.8-1.37,2.22-2.01,3.73-2.36,6.91-1.63,9.54-9.45,7.82-15.78-1.06-5.38-5.87-7.67-10.84-9.15-2.66-2.93-4.69-6.79-8.72-8.17-3.54-.87-2.72-5.54-2.6-8.36.31-.96,1.31-1.38,2.18-1.88,6.66-3.63,9.48-11.99,6.02-18.5-4.2-7.94-12.96-8.44-20.47-5.95-.88-.08-1.61-.73-2.24-1.36-3.66-4.02-8.87-5.72-13.95-5.19-5,.19-8.95,3.59-12.81,6.55-2.11.53-4.57-1.34-6.86-1.24-14.06-1.39-20.2,17.63-8.4,25.01,1.77,1.1,3.75,1.2,3.75,3.4-.02,2.64.94,6.58-2.6,7.29-3.34,1.44-5.88,4.05-7.83,7.14-.91,1.49-2.56,2.13-4.25,2.38-9.88,1.72-11.41,15.97-4.06,22.52,2.25,2.16,6.34,1.28,7.88,4.42,9.19,15.11,25.92,3.48,23.53,11.85-.32,1.06-1.33,1.17-2.3,1.17-9.23-.34-14.73.52-20.62,7.74-.68.16-1.47-.68-2-1.22-4.55-4.98-13.23-5.06-17.93-.22-.76.74-1.58,1.48-2.59,1.79-6.32.71-12.84-.11-19.2.38-4.89-.82-3.31-9.15-3.95-12.86-.31-2.48-3.6-2.21-5.3-2.95-.42-.24-.54-.67-.57-1.16.03-2.67-.15-10.07,0-13.21,1.17-2.61,10.13-.66,13.37-8.47,2.11-5.94,2.08-13.31,2.62-19.61.96-5.16-1.14-10.44-7.15-10.14-8-.46-16.65.47-24.75.21-5.75-.54-7.65,5.13-6.73,9.93.63,6.06,1.05,12.82,2.73,18.71,3.41,10.4,13.24,6.14,14.45,9.58.03,2.97.13,10.83-.08,14.1-.77,1.18-2.59.14-4.26,1.01-1.87.73-2.26,2.88-2.22,4.71-.03,10.35-.06,20.65.29,30.99-.09,4.25-.49,9.26,3.71,11.79,3.74,2.45,9.02,1.77,11.98-1.37,4.28-4.67,1.33-11.56,2.45-17.14,1.05-3.09,5.01-3.21,7.86-3.04,4.42.12,11.16-2.01,14.53,1.46,2.24,5.63,8.66,8.27,14.63,6.95,5.24-1.17,5.87-4.91,5.54,3.16.31,11.14-.62,27.22.42,32.25,1.4,3.76,4.37,7.8,7.78,9.65,1.28.75,2.84,1.21,3.27,2.81.69,2.42.29,5-1.49,6.72-4,4.73-4,12.28.21,17.09,1.02,1.24,1.52,1.99,1.54,3.71.11,2.71.38,8.49.45,10.77.19,1.78-1.88,1.66-3.19,1.7-13.67-.12-20.69,12.29-19.21,25.09,0,.46.02.84.04,1.11.06.76.21.66.56.67,21.4-.09,94.11.08,97.62-.02.31-.42.27-.96.32-1.69,1.69-13.8-4.82-26.46-20.29-25.28-.55-.14-.71-.58-.74-1.11-.05-2.35,0-8.74-.02-11.58-.22-2.86,2.62-4.32,3.51-6.81,4.99-11.49-5.06-12.31-3.62-20.69.38-1.59,2.15-1.91,3.35-2.78,3.01-2.03,5.63-5.91,6.86-9.39,1.46-11.79.47-24.02.47-35.91-.21-2.14,1.75-1.38,2.99-.64,6.79,3.91,15.31.26,17.98-6.81.34-.53.74-.76,1.43-.79,3.06,0,7.7.16,11.04.21,10.82-1.14,4.75,11.24,7.69,17.02,3.44,6.72,16.31,5.15,17.42-2.6.43-4.55-.46-9.99.09-14.72.51-4.62,2.29-11.78.55-15.95-.64-1.61-2.29-2.46-2.31-4.34.42-2.72-.74-7.45,2.44-8.61l.16-.08ZM155.31,62.36c1.71.72,3.86,2.23,4.34,4.15.78,3.39-.29,8.06-3.88,9.18-.28.07-.52.21-.62,0,.08-1.92-.19-10.73.09-13.34h.07ZM76.96,63.31c-.14,1.91,0,4.27-.05,6.45-.11,2.74.22,5.47-.14,6.05-5.03-.13-6.66-8.58-3.3-11.49.74-.6,1.9-1.25,2.81-1.49.7-.18.82.21.7.42l-.02.06ZM32.74,46.61c.62-.84,2.05-1.07,2.86-.05.94,1.03.46,2.39.39,3.62-.07,3.59.43,8.55.09,12.07-.01,2.3-2.17,3.95-3.72,1.64-.85-1.66.06-3.67-.08-5.44.08-3.17-.54-9.7.39-11.73l.08-.11ZM14.08,62.63c-.5-4.44.21-9.35.03-13.89,0-.75.1-1.56.64-2.12,1.01-1.16,2.64-.22,3.06,1.01.61,4.06-.04,8.34.21,12.47.05,1.24.51,2.59-.04,3.78-1.11,2.26-3.61,1.06-3.87-1.05l-.04-.2ZM23.11,47.96c.44-2.56,3.18-2.77,3.75-.14.62,4.97-.04,10.64-.11,15.72-.34,1.4-1.97,2.15-3,.89-1.26-1.47-.47-3.55-.43-5.28.07-3.51-.72-7.42-.24-11.03l.03-.18ZM28.9,132.3c-1.18,2.8-5.47,2.38-6.59-.33-1.79-11.21-.44-23.03-.6-34.35.01-1.15.28-1.78,1.6-1.88,1.48-.15,3.95-.16,4.95-.07.48.07.7.05.77.41-.08,5.53.19,28.47-.09,36.13l-.03.09ZM39.5,111.9c.07-.69.1-1.16,1.01-1.12,1.07-.07,4.01-.27,4.55-.31.11,0,.12.02.12.28v1.23c0,.38-.03.27-.32.27-1.4-.09-4.1-.19-5.36-.3v-.06ZM51.52,112.52c-.4-.26-.51-1.09-.22-1.45.44-.46,1.27-.29,1.97-.4.98-.05,2.06-.05,2.46.07.15.04.18.1.19.35,0,.37.03,1.14.02,1.35,0,.19-.1.12-.4.13-.77,0-3.11.02-3.95-.01l-.07-.03ZM68.23,120.66c-9.74-.2-9.24-16.7,1.27-15.46,8.56.92,7.56,15.61-1.07,15.46h-.21ZM85.5,26.16c-.66-7.51,9.78-12.12,13.8-5.74.45.68.8,1.51,1.45,1.98,1.11.75,4.02,1.27,4.15-.76,1.35-12.57,19.88-13.25,21.38-.09.24,1.91,2.52,1.63,3.85,1.14,1.02-.42,1.13-1.6,1.74-2.59,1.18-1.84,3.51-2.61,5.59-2.81,8.04-.68,12.03,9.7,6.26,14.82-.96.82-2.09,1.33-3.32,1.68-1.14.34-2.64.43-3.32,1.49-.9,1.78-.59,3.97-.66,5.91.02,1.22.15,2.67.16,3.44,0,.41-.05.62-.2.69-4.32.16-31.97.24-39.88.34-.58.02-.82.07-.89-.73-.47-2.6,1.68-9.09-1.17-10.31-4.42-.39-8.58-3.6-8.93-8.25v-.2ZM92.93,87.12c-8.06-.59-10.97-7.6-11.05-14.64-.68-10.06,1.49-20.45,12.33-21.39,6.79-.74,14.78-.31,21.85-.3,8.11.25,17.45-1.4,25.29,1,8.35,3.62,9.16,14.67,8.51,22.94-.07,5.45-3.17,10.09-8.57,11.51-6.17,1.93-14.29,1.04-19.98.95-9.1-.14-19.23.74-28.18-.04l-.2-.02ZM124.03,92.99c.05.6.02,2.55.03,3.25-.04.49.09.72-.27.78-1.58,0-13.49.02-14.77,0-.16-.02-.19-.15-.2-.6,0-.83,0-2.31,0-2.97.02-.29-.03-.46.15-.58.48-.06,3.51,0,6.74-.03,2.37.08,6.73-.16,8.31.09l.02.06ZM113.3,234.4c-.05.24-.1.34-.29.37-4.37,0-14.54.01-20.63,0-8.85,0-17.54,0-19.32,0-.2-.01-.29-.09-.35-.34-.79-14.37,9.31-16.6,21.87-16.6,2.92.03,5.56-.09,8.34.61,6.41,1.67,10.82,9.39,10.39,15.85v.09ZM97.57,180.37c10.17.34,10.49,15.19.32,15.92-10.78.18-11.2-15.44-.51-15.92h.19ZM94.5,172.91c1.06-.04,5.4-.03,5.61,0,.13.44-.01.81,0,1.37-.05.44,0,1.25-.14,1.54-1.44-.06-3.07-.29-4.61-.17-.18,0-.39-.01-.54-.13-.16-.28-.26-1.98-.33-2.58l.02-.04ZM100,201.36c.22-.01.14.25.16.7v1.85c-.02,3.26.03,8.49-.03,8.99-.59.29-2.1.04-3.09.12-.56,0-1.09,0-1.47,0-.59,0-.76.01-.79-.18-.02-1.09-.27-9.06-.23-10.95.28-.67,1.1-.22,1.83-.14,1.07.2,2.7-.14,3.53-.39h.08ZM119.46,219.8c-.97.98-2.14,4.72-3.26,3.07-.87-1.6-1.8-3.3-3.2-4.55-1.93-2.03-4.73-3.03-7.11-4.36-.48-.47-.37-1.01-.37-1.73.04-1.57.07-3.35.11-5.08.04-1.97.1-4.49.14-6.25.01-1.05.04-1.59.44-2.32,1.34-2.25,3.3-4.45,3.93-7.11,1.16-4.4.27-8.94-2.79-12.06-.59-.62-1.27-1.16-1.54-1.98-.37-1.43-.17-3.41.11-4.66.07-.14.17-.21.32-.25.55-.06,1.91-.01,3.73-.03,4.41,0,13.26-.04,16.97.03.36.08.38.51.41.86.03.91.09,2.59-.13,3.6-.27,1.17-1.23,1.98-1.94,2.92-4.47,5.82-2.83,13.29,1.42,18.66,1.43,3.17.92,6.93.76,10.32-.25,1.54.28,3.27-.45,4.68-.55.94-1.96,1.45-3.03,2.19-1.64,1.04-3.23,2.37-4.4,3.89l-.12.15ZM148.83,218.43c4.4.74,8.91,4.53,10.5,8.74.84,2.24.54,4.58.56,6.99-.05.51-.04.61-.36.63-3.4,0-36.42.02-38.82-.02-.11-.03-.17-.12-.2-.39-.06-1-.03-2.36-.03-3.43-.17-4.51,2.67-8.87,6.59-10.99,2.98-1.59,5.47-1.52,9.41-1.81,4.65-.17,9-.13,12.2.25l.15.02ZM138.27,175.93c-.13.05-.42-.13-.56-.19-1.03-.15-3.93.02-4.32-.07-.18-.34-.05-.68-.09-1.12.03-.45-.07-1.26.06-1.58.86-.35,2.76-.02,3.83-.12.58.08.95-.27,1.37-.01.19.21.09.59,0,.98-.17.54-.21,1.59-.24,2.05l-.06.06ZM135.93,180.38c10.73.48,10.3,16.15-.51,15.97-10.21-.74-9.89-15.63.32-15.97h.19ZM138.59,201.37c.29.23.04,1.29.12,2.63-.02,3.18.03,8.11-.03,8.6-.02.05-.06.08-.13.09-.84.06-1.86,0-2.96.03-.56,0-1.09,0-1.47,0-.59,0-.76.01-.79-.18,0-1.06-.35-9.59-.25-10.91,1.47-.3,4.11.2,5.46-.26h.05ZM149.75,154.47c-.36,8.94-5.26,13.35-13.88,13.67-13.05.8-26.68-.52-39.77-.06-5.62,0-11.47-3.71-13.12-9.22-1.39-6.55-.36-13.45-.45-20.04.03-6.25-.69-12.78-.42-20.22.18-5.82.99-12.16,6.98-14.64,1.93-.91,4.01-1.34,6.1-1.53,13.49-1.15,28.42.68,42.12.06,7.17-.48,12.92,6.48,12.39,13.39-.35,12.68.78,25.8.06,38.38l-.02.21ZM163.86,120.16c-9.43-.32-9.75-14.08-.31-14.79,10.03-.2,10.45,14.33.5,14.79h-.19ZM179.6,112.27c-1.05.07-3.16.14-2.42-1.54.04-.15.06-.13.21-.15.6-.1,1.7-.27,2.23-.36.42-.06.34-.15.28.34-.06.46-.18,1.28-.24,1.69l-.06.02ZM185.63,111.92c-.01-.48-.02-1.45-.01-1.94,0-.18.16-.08.59-.11.87,0,3.11,0,3.61,0,.14-.04.36.25.5.48.11.41.05,1.3.08,1.8,0,.17-.09.1-.37.09-1.2-.09-3.3-.21-4.38-.3l-.02-.03ZM207.85,130.52c-2.41,4.51-7.6,1.82-7.35-2.82.54-8.54-.4-17.18.25-25.77-.14-3.17,4.56-3.51,6.37-2.06.87.7,1.22,1.84,1.35,2.92.6,4.96-.31,11.35-.43,16.69-.16,3.14.65,7.61-.13,10.89l-.06.15ZM202.11,93.44c-.15-.9-.03-3.13-.04-4.07.04-.19.33-.05.74.04,1.19.35,2.53-.08,3.67-.12.15.74.01,2.19.06,3.06-.07.51.19,1.11-.25,1.08-1.23-.29-2.85-.43-4.1.01h-.08ZM204.14,79.89c-11.89.14-20.28-12.79-15.39-23.57,7.29-16.47,31.8-11.66,32.36,6.29.34,9.3-7.47,17.33-16.77,17.29h-.2Z"/>
  <path class="cls-2" d="M108.87,96.93c3.37.25,12.61.05,15.04.07.18-.12.12-.29.15-.58,0-.48,0-1.38,0-2.13-.04-.45.13-1.34-.2-1.43-1.28-.02-13.19,0-14.77,0-.36.06-.22.29-.27.78.02,1.03-.04,2.64.03,3.25l.02.06Z"/>
  <path class="cls-2" d="M149.65,113.81c-.52-6.28-6.11-11.84-12.55-11.31-13.45.59-28.08-1.15-41.35-.11-4.77.25-10.26,2.29-12.15,7-2.28,5.75-1.49,16.69-1.18,24.42.39,7.37-.51,14.75.04,22.14.19,5.39,4.22,9.73,9.2,11.41,1.69.62,3.44.79,5.21.73,12.22-.4,24.98.73,37.14.17,10.47-.1,15.64-4.45,15.81-15.14.51-12.89-.42-26.19-.16-39.12v-.19ZM101.14,149.99c-2.56,4.06-9.19-.65-5.84-4.27,2.98-3.33,8.13.59,5.94,4.1l-.11.17ZM94.44,133.61c.25-4.87,7.45-4.63,7.31.29-.32,4.63-7.14,4.48-7.31-.12v-.17ZM98.41,122.15c-5.79.41-6.57-9.04-.23-8.95,5.1-.12,5.32,8.43.42,8.93l-.19.02ZM109.41,131.14c1.37-.25,3.46.03,4.77.46.19.84.1,2.28.19,3.2.02.38.03.49-.14.57-.8.33-5.02.38-5.8-.06-.1-.07-.18-.18-.26-.33-.59-1.21-.31-3.33,1.1-3.8l.15-.04ZM114.07,149.57c-1.3.12-4.61.02-5.28.03-.33-.19-.37-.53-.5-.78-1.63-3.82,2.89-3.88,5.93-3.08.24.14.27.44.27.79.04.97.24,2.17-.36,2.98l-.06.06ZM119.89,131.45c1.02-.17,4.93-.01,5.4-.06.2.04.32.09.47.28.6.8.68,3.15-.19,3.92-.72.53-1.65.18-2.66.27-1.13,0-2.38,0-2.82,0-.11,0-.19-.04-.25-.14-.53-1.24-.19-2.88,0-4.2l.03-.08ZM119.93,149.45c-.42-.81-.36-2.27.01-3.15.72-1.4,5.01-1.23,6.01-.24,2.63,4.29-3.24,4.42-5.93,3.48l-.1-.09ZM137.72,149.56c-.99.59-3.63.46-4.77.24-.45-.1-.74-.19-.93-.48-.52-.91-.16-2.68.52-3.44,1.57-.3,4.88-1.27,5.47.97.2.8.23,1.98-.23,2.64l-.07.07ZM132.37,135.36c-.92-.57-.61-2.73-.14-3.53,1.41-.19,4.23-.95,5.35.12.58.64.64,1.62.59,2.34-.44,2.46-3.91,1.14-5.67,1.13l-.13-.05ZM133.8,125.42c-9.86-.33-10.18-14.72-.32-15.44,10.46-.19,10.89,14.97.51,15.44h-.19Z"/>
  <path class="cls-2" d="M101.2,218.11c-3.39-.37-7.67-.35-12.33,0-4.37.47-7.39.7-10.55,2.81-4.37,2.87-5.68,7.38-5.68,12.48.03.56-.08,1.15.32,1.37,3.02.04,35.9,0,39.89.02.77,0,.44-1.36.49-1.95-.3-6.63-5.05-13.79-11.96-14.71l-.17-.02Z"/>
  <path class="cls-2" d="M128.46,219.29c-6.41,2.69-8.6,8.38-7.96,14.98.05.41.07.5.36.51,3.19,0,32.52,0,38.06,0,.74-.08.97.3.99-.77-.03-1.62.17-4.06-.25-5.79-1.19-4.82-6.53-9.47-11.7-9.91-4.96-.38-14.8-.58-19.35.93l-.15.06Z"/>
  <path class="cls-2" d="M127.84,188.47c.34,10.21,15.24,10.52,15.97.32.18-10.81-15.49-11.23-15.97-.51v.19ZM138.68,185.04c3.79,3.86-2.01,10.48-6.09,5.84-3.58-3.56,2.41-9.32,5.96-5.97l.13.13Z"/>
  <path class="cls-2" d="M89.5,188.43c.48,10.69,16.1,10.27,15.92-.51-.73-10.18-15.58-9.86-15.92.32v.19ZM94.07,185.47c4.01-3.94,10.04.76,6.08,5.59-3.32,3.73-9.42-1.64-6.19-5.46l.11-.13Z"/>
  <path class="cls-2" d="M96.11,201.7c-1.37-.36-1.71-.28-1.56,1.24.14,2.74.05,9.15.32,10.04,1.1.13,3.26,0,4.5.05.66,0,.79.01.79-.24,0-1.21,0-9.73,0-11.22,0-.09-.04-.14-.09-.17-1.1.11-2.63.61-3.79.34l-.17-.03Z"/>
  <path class="cls-2" d="M138.27,201.46c-1.28.22-3.8-.02-5.1.1-.09.02-.12.07-.14.15,0,.95.25,9.52.28,10.77.02.24.11.25.62.25.33,0,.83,0,1.37,0,1.18-.02,2.33.04,3.24-.03.07-.02.11-.05.13-.09.06-.53,0-6.27.03-9.36-.1-1.19.27-2.08-.36-1.82l-.08.03Z"/>
  <path class="cls-2" d="M99.96,175.87c.18-.63.14-2.15.2-2.85,0-.19-.2-.1-.65-.12-1.12,0-4.36,0-4.92,0-.13,0-.12.08-.09.39.07.55.17,1.72.25,2.11.04.14.13.2.26.22,1.57.04,3.32-.1,4.87.27l.08-.02Z"/>
  <path class="cls-2" d="M137.86,172.81c-1.3.17-3.28-.23-4.5.15-.12.2-.04.93-.06,1.6.04.38-.09.95.09,1.14.38.06,3.83-.02,4.22.04.19.06.49.29.65.14.15-.15.05-.7.14-1.15.03-.64.79-2.36-.42-1.94l-.12.03Z"/>
  <path d="M133.8,109.95c-9.86.33-10.18,14.72-.32,15.44,10.46.19,10.89-14.97.51-15.44h-.19ZM136.24,119.03c-1.4,2.76-6.01.63-5.17-2.17,1.12-3.31,7-1.41,5.26,1.99l-.09.18Z"/>
  <path d="M97.6,113.22c-6,.53-4.6,9.94,1.33,8.85,4.81-.93,4.06-9.4-1.12-8.87l-.21.02Z"/>
  <path d="M98.19,137.36c4.87-.25,4.63-7.45-.29-7.31-4.63.32-4.48,7.14.12,7.31h.17Z"/>
  <path d="M95.39,145.61c-3.49,3.45,3,8.65,5.79,4.29,2.34-3.51-2.78-7.29-5.65-4.43l-.14.14Z"/>
  <path d="M125.21,135.82c.73-.25.96-1.18.98-1.97.08-.74-.07-2.05-.62-2.36-.22-.15-.37-.09-.85-.1-1.29.01-3.43-.03-4.72.02-.08.03-.12.11-.16.24-.19,1.27-.52,2.81,0,4.08.1.17.24.14.53.14,1.46-.01,3.32.03,4.74-.02l.08-.03Z"/>
  <path d="M119.92,146.34c-.3.89-.48,2.3.09,3.12,1.95.81,7.38,1.27,6.48-2.31-.24-1.2-1.01-1.59-2.35-1.78-1.21-.17-3.56-.12-4.16.86l-.05.11Z"/>
  <path d="M114.36,135.27c.01-.72-.1-2.56-.11-3.27,0-.25-.02-.39-.15-.46-1.55-.27-3.96-.99-5.4-.04-.94.76-1.04,2.68-.45,3.61.43.52,1.04.36,1.77.48,1.16.05,3.48.14,4.33-.28l.03-.05Z"/>
  <path d="M114.35,145.77c-2.97-.88-8.44-.79-5.64,3.8,1.43.08,3.93.08,5.32,0,.85-.84.47-2.6.4-3.71l-.08-.09Z"/>
  <path d="M132.47,145.88c-.55.84-1.07,2.63-.36,3.55.74.74,4.74.69,5.55.16.55-.46.54-1.6.45-2.32-.3-2.77-3.76-1.67-5.53-1.46l-.1.07Z"/>
  <path d="M132.17,131.83c-.29.76-.88,3.31.46,3.59,1.77.03,4.37,1.12,5.42-.61.27-.62.14-1.56-.07-2.23-.92-2.13-3.96-.8-5.72-.82l-.08.06Z"/>
  <path d="M138.54,184.91c-3.55-3.35-9.54,2.41-5.96,5.97,4.08,4.64,9.88-1.98,6.09-5.84l-.13-.13Z"/>
  <path d="M100.51,190.63c3.04-4.39-2.05-8.78-6.07-5.48-4.31,3.7,2.41,10.13,5.95,5.64l.12-.16Z"/>
  <path class="cls-2" d="M131.55,116.02c-2.39,2.72,3.13,6.54,4.83,2.7,1.39-2.79-2.89-4.74-4.72-2.82l-.12.13Z"/>
  <path class="cls-2" d="M94.96,34.82c.44.29.66.8.77,1.33.5,2.8-.31,5.9-.12,8.77.07.76.29.76.81.73.91-.01,1.7,0,2.8-.02,9.19-.07,33.58-.24,36.96-.27.38-.02.4-.22.42-.74-.03-2.68-.62-6.5.41-9.21,1.01-1.64,3.49-1.32,5.03-2.22,3.5-1.49,5.22-6.15,4.12-9.82-1.42-6-10.18-8.38-14.17-3.42-.7,1.01-.77,2.3-1.84,2.74-.84.35-1.96.45-2.82.22-.73-.21-.94-.85-1.1-1.73-.43-2.29-1.29-4.55-2.92-6.25-6.09-6.38-18-1.95-18.39,6.71-.14,2.1-3.37,1.52-4.42.53-.46-.46-.8-1.17-1.18-1.75-3.56-5.62-12.68-2.85-13.7,3.92-.71,4.1,2.05,8.3,5.91,9.61,1.15.45,2.51.32,3.32.78l.12.08ZM101.93,32.28c3.31-5.06,3.9-1.48,7.34.69,5.24,3.4,10.85,2.56,15.41-1.48.43-.37.96-.91,1.46-.96.9-.09,2.02,1.3,2.53,1.99.56.78.22,1.71-.29,2.49-3.73,6.23-11.82,7.89-18.41,5.05-2.44-1.09-8.3-4.83-8.08-7.64l.04-.13Z"/>
  <path class="cls-2" d="M120.67,87.17c8.26-.1,22.77,2.62,27.76-6.48.84-1.59,1.24-3.73,1.38-5.57.98-9.42-.72-23.17-12.11-24.21-5.49-.71-12.54-.28-18.27-.15-7.35.12-16.01-.38-23.26.13-12.59.27-15.11,10.63-14.27,22.21.43,10.11,5.32,14.53,15.24,14.28,7.69.26,15.78-.27,23.36-.22h.17ZM96.54,56.88c11.95.22,24.85-.99,36.83-.25,14.07.22,15.84,24.46,1.65,25.63-11.94-.5-24.95,1.03-36.72.28-2.56-.11-5.38-.71-7.28-2.48-6.73-5.94-4.48-21.42,5.34-23.16l.18-.02Z"/>
  <path class="cls-2" d="M73.29,64.48c-2.9,3-1.7,10.07,2.61,11.22.29.07.95.26,1.01-.02.07-1.45-.11-11.3.08-12.41.24-1.38-3.03.59-3.59,1.11l-.11.1Z"/>
  <path class="cls-2" d="M159.52,66.08c-.51-1.49-2.81-3.25-4.22-3.72-.11-.02-.15.01-.17.1,0,1.29-.01,11.95,0,13.24.25.35,1.42-.3,2.01-.68,2.62-1.92,3.17-5.82,2.42-8.79l-.05-.15Z"/>
  <path d="M108.98,39.6c6.66,3.41,15.5,1.97,19.4-4.6,1.07-1.48.54-2.57-.87-3.8-.99-1.01-1.73-.79-2.67.15-4.58,4.16-10.28,5.06-15.59,1.62-1.72-.71-3.65-4.52-5.46-2.85-.71.64-1.64,1.45-1.91,2.37-.34,2.23,4.51,5.67,6.95,7.04l.15.08Z"/>
  <path d="M136.3,82.17c7.51-1.5,10.09-10.69,7.73-17.21-1.49-4.73-5.68-8.17-10.66-8.33-11.69-.78-24.3.53-36.13.21-13.65,1.43-13.74,26.5,1.45,25.73,12.07.6,25.38-.69,37.43-.37l.19-.03ZM128.88,65.98c5.82-1.28,7.65,8.12,1.81,9.17-5.61,1.18-7.63-7.87-2.01-9.13l.2-.04ZM102.56,75.2c-5.76.11-6.72-9.08-.55-9.27,6.32-.38,6.45,9.04.74,9.27h-.2Z"/>
  <path class="cls-2" d="M101.19,66.02c-5.88,1.17-3.45,10.29,2.15,9.09,5.84-1.08,4.07-10.38-1.94-9.13l-.21.04Z"/>
  <path class="cls-2" d="M130.79,75.14c5.62-1.1,3.93-10.34-1.77-9.17-6.02.99-4.08,10.23,1.58,9.2l.2-.03Z"/>
</svg>